<mxfile host="app.diagrams.net" modified="2022-08-12T03:35:13.564Z" agent="5.0 (Macintosh; Intel Mac OS X 10_15_7) AppleWebKit/537.36 (KHTML, like Gecko) Chrome/104.0.0.0 Safari/537.36" etag="0qKKPua5k8wlwJHbdPxH" version="20.2.3" type="github">
  <diagram id="C5RBs43oDa-KdzZeNtuy" name="Page-1">
    <mxGraphModel dx="2377" dy="1238" grid="1" gridSize="10" guides="1" tooltips="1" connect="1" arrows="1" fold="1" page="1" pageScale="1" pageWidth="827" pageHeight="1169" math="0" shadow="0">
      <root>
        <mxCell id="WIyWlLk6GJQsqaUBKTNV-0" />
        <mxCell id="WIyWlLk6GJQsqaUBKTNV-1" parent="WIyWlLk6GJQsqaUBKTNV-0" />
        <mxCell id="4dKTXO5G0q5J4LrQVhPR-27" value="" style="rounded=0;whiteSpace=wrap;html=1;glass=0;sketch=1;fontSize=18;" vertex="1" parent="WIyWlLk6GJQsqaUBKTNV-1">
          <mxGeometry x="14" y="60" width="800" height="1170" as="geometry" />
        </mxCell>
        <mxCell id="4dKTXO5G0q5J4LrQVhPR-21" value="&lt;b&gt;&lt;font style=&quot;font-size: 18px;&quot;&gt;临时地图&lt;/font&gt;&lt;/b&gt;" style="rounded=0;whiteSpace=wrap;html=1;fillColor=#dae8fc;strokeColor=#6c8ebf;glass=0;sketch=1;" vertex="1" parent="WIyWlLk6GJQsqaUBKTNV-1">
          <mxGeometry x="170" y="216" width="210" height="220" as="geometry" />
        </mxCell>
        <mxCell id="4dKTXO5G0q5J4LrQVhPR-22" value="&lt;b&gt;&lt;font style=&quot;font-size: 18px;&quot;&gt;分区地图&lt;/font&gt;&lt;/b&gt;" style="rounded=0;whiteSpace=wrap;html=1;glass=0;sketch=1;fillColor=#f8cecc;strokeColor=#b85450;" vertex="1" parent="WIyWlLk6GJQsqaUBKTNV-1">
          <mxGeometry x="30" y="126" width="120" height="60" as="geometry" />
        </mxCell>
        <mxCell id="4dKTXO5G0q5J4LrQVhPR-23" value="&lt;b&gt;&lt;font style=&quot;font-size: 18px;&quot;&gt;临时地图&lt;/font&gt;&lt;/b&gt;" style="rounded=0;whiteSpace=wrap;html=1;fillColor=#dae8fc;strokeColor=#6c8ebf;glass=0;sketch=1;" vertex="1" parent="WIyWlLk6GJQsqaUBKTNV-1">
          <mxGeometry x="430" y="124" width="210" height="220" as="geometry" />
        </mxCell>
        <mxCell id="4dKTXO5G0q5J4LrQVhPR-24" value="&lt;b&gt;&lt;font style=&quot;font-size: 18px;&quot;&gt;分区地图&lt;/font&gt;&lt;/b&gt;" style="rounded=0;whiteSpace=wrap;html=1;glass=0;sketch=1;fillColor=#f8cecc;strokeColor=#b85450;" vertex="1" parent="WIyWlLk6GJQsqaUBKTNV-1">
          <mxGeometry x="670" y="374" width="120" height="60" as="geometry" />
        </mxCell>
        <mxCell id="4dKTXO5G0q5J4LrQVhPR-25" value="&lt;b&gt;&lt;font style=&quot;font-size: 18px;&quot;&gt;临时地图&lt;/font&gt;&lt;/b&gt;" style="rounded=0;whiteSpace=wrap;html=1;fillColor=#dae8fc;strokeColor=#6c8ebf;glass=0;sketch=1;" vertex="1" parent="WIyWlLk6GJQsqaUBKTNV-1">
          <mxGeometry x="110" y="540" width="210" height="220" as="geometry" />
        </mxCell>
        <mxCell id="4dKTXO5G0q5J4LrQVhPR-26" value="&lt;b&gt;&lt;font style=&quot;font-size: 18px;&quot;&gt;分区地图&lt;/font&gt;&lt;/b&gt;" style="rounded=0;whiteSpace=wrap;html=1;glass=0;sketch=1;fillColor=#f8cecc;strokeColor=#b85450;" vertex="1" parent="WIyWlLk6GJQsqaUBKTNV-1">
          <mxGeometry x="150" y="570" width="120" height="60" as="geometry" />
        </mxCell>
        <mxCell id="4dKTXO5G0q5J4LrQVhPR-28" value="" style="endArrow=none;html=1;rounded=0;fontSize=18;entryX=0.5;entryY=0;entryDx=0;entryDy=0;exitX=0.5;exitY=1;exitDx=0;exitDy=0;" edge="1" parent="WIyWlLk6GJQsqaUBKTNV-1" source="4dKTXO5G0q5J4LrQVhPR-27" target="4dKTXO5G0q5J4LrQVhPR-27">
          <mxGeometry width="50" height="50" relative="1" as="geometry">
            <mxPoint x="370" y="190" as="sourcePoint" />
            <mxPoint x="420" y="140" as="targetPoint" />
          </mxGeometry>
        </mxCell>
        <mxCell id="4dKTXO5G0q5J4LrQVhPR-30" value="&lt;b&gt;&lt;font style=&quot;font-size: 18px;&quot;&gt;临时地图&lt;/font&gt;&lt;/b&gt;" style="rounded=0;whiteSpace=wrap;html=1;fillColor=#dae8fc;strokeColor=#6c8ebf;glass=0;sketch=1;" vertex="1" parent="WIyWlLk6GJQsqaUBKTNV-1">
          <mxGeometry x="500" y="540" width="210" height="220" as="geometry" />
        </mxCell>
        <mxCell id="4dKTXO5G0q5J4LrQVhPR-31" value="&lt;b&gt;&lt;font style=&quot;font-size: 18px;&quot;&gt;分区地图&lt;/font&gt;&lt;/b&gt;" style="rounded=0;whiteSpace=wrap;html=1;glass=0;sketch=1;fillColor=#f8cecc;strokeColor=#b85450;" vertex="1" parent="WIyWlLk6GJQsqaUBKTNV-1">
          <mxGeometry x="540" y="520" width="210" height="70" as="geometry" />
        </mxCell>
        <mxCell id="4dKTXO5G0q5J4LrQVhPR-33" value="&lt;b&gt;&lt;font style=&quot;font-size: 18px;&quot;&gt;临时地图&lt;/font&gt;&lt;/b&gt;" style="rounded=0;whiteSpace=wrap;html=1;fillColor=#dae8fc;strokeColor=#6c8ebf;glass=0;sketch=1;" vertex="1" parent="WIyWlLk6GJQsqaUBKTNV-1">
          <mxGeometry x="90" y="930" width="210" height="220" as="geometry" />
        </mxCell>
        <mxCell id="4dKTXO5G0q5J4LrQVhPR-34" value="&lt;b&gt;&lt;font style=&quot;font-size: 18px;&quot;&gt;分区地图&lt;/font&gt;&lt;/b&gt;" style="rounded=0;whiteSpace=wrap;html=1;glass=0;sketch=1;fillColor=#f8cecc;strokeColor=#b85450;" vertex="1" parent="WIyWlLk6GJQsqaUBKTNV-1">
          <mxGeometry x="30" y="900" width="210" height="70" as="geometry" />
        </mxCell>
        <mxCell id="4dKTXO5G0q5J4LrQVhPR-35" value="&lt;b&gt;&lt;font style=&quot;font-size: 18px;&quot;&gt;临时地图&lt;/font&gt;&lt;/b&gt;" style="rounded=0;whiteSpace=wrap;html=1;fillColor=#dae8fc;strokeColor=#6c8ebf;glass=0;sketch=1;" vertex="1" parent="WIyWlLk6GJQsqaUBKTNV-1">
          <mxGeometry x="500" y="930" width="210" height="220" as="geometry" />
        </mxCell>
        <mxCell id="4dKTXO5G0q5J4LrQVhPR-36" value="&lt;b&gt;&lt;font style=&quot;font-size: 18px;&quot;&gt;分区地图&lt;/font&gt;&lt;/b&gt;" style="rounded=0;whiteSpace=wrap;html=1;glass=0;sketch=1;fillColor=#f8cecc;strokeColor=#b85450;" vertex="1" parent="WIyWlLk6GJQsqaUBKTNV-1">
          <mxGeometry x="440" y="1110" width="210" height="70" as="geometry" />
        </mxCell>
        <mxCell id="4dKTXO5G0q5J4LrQVhPR-37" value="" style="endArrow=none;html=1;rounded=0;fontSize=18;exitX=-0.001;exitY=0.346;exitDx=0;exitDy=0;exitPerimeter=0;entryX=0.999;entryY=0.344;entryDx=0;entryDy=0;entryPerimeter=0;" edge="1" parent="WIyWlLk6GJQsqaUBKTNV-1" source="4dKTXO5G0q5J4LrQVhPR-27" target="4dKTXO5G0q5J4LrQVhPR-27">
          <mxGeometry width="50" height="50" relative="1" as="geometry">
            <mxPoint x="60" y="510" as="sourcePoint" />
            <mxPoint x="110" y="460" as="targetPoint" />
          </mxGeometry>
        </mxCell>
        <mxCell id="4dKTXO5G0q5J4LrQVhPR-38" value="" style="endArrow=none;html=1;rounded=0;fontSize=18;exitX=-0.003;exitY=0.664;exitDx=0;exitDy=0;exitPerimeter=0;entryX=1.005;entryY=0.663;entryDx=0;entryDy=0;entryPerimeter=0;" edge="1" parent="WIyWlLk6GJQsqaUBKTNV-1" source="4dKTXO5G0q5J4LrQVhPR-27" target="4dKTXO5G0q5J4LrQVhPR-27">
          <mxGeometry width="50" height="50" relative="1" as="geometry">
            <mxPoint x="230" y="850" as="sourcePoint" />
            <mxPoint x="280" y="800" as="targetPoint" />
          </mxGeometry>
        </mxCell>
        <mxCell id="4dKTXO5G0q5J4LrQVhPR-40" value="偏移量小于负分区地图 x / y（步骤 7）" style="text;html=1;strokeColor=none;fillColor=none;align=center;verticalAlign=middle;whiteSpace=wrap;rounded=0;glass=0;sketch=1;fontSize=18;" vertex="1" parent="WIyWlLk6GJQsqaUBKTNV-1">
          <mxGeometry x="40" y="70" width="335" height="30" as="geometry" />
        </mxCell>
        <mxCell id="4dKTXO5G0q5J4LrQVhPR-41" value="偏移量大于正临时地图 x / y（步骤 8）" style="text;html=1;strokeColor=none;fillColor=none;align=center;verticalAlign=middle;whiteSpace=wrap;rounded=0;glass=0;sketch=1;fontSize=18;" vertex="1" parent="WIyWlLk6GJQsqaUBKTNV-1">
          <mxGeometry x="440" y="70" width="335" height="30" as="geometry" />
        </mxCell>
        <mxCell id="4dKTXO5G0q5J4LrQVhPR-42" value="偏移量在临时地图范围内" style="text;html=1;strokeColor=none;fillColor=none;align=center;verticalAlign=middle;whiteSpace=wrap;rounded=0;glass=0;sketch=1;fontSize=18;" vertex="1" parent="WIyWlLk6GJQsqaUBKTNV-1">
          <mxGeometry x="40" y="480" width="335" height="30" as="geometry" />
        </mxCell>
        <mxCell id="4dKTXO5G0q5J4LrQVhPR-43" value="偏移量在临时地图中一部分" style="text;html=1;strokeColor=none;fillColor=none;align=center;verticalAlign=middle;whiteSpace=wrap;rounded=0;glass=0;sketch=1;fontSize=18;" vertex="1" parent="WIyWlLk6GJQsqaUBKTNV-1">
          <mxGeometry x="437.5" y="480" width="335" height="30" as="geometry" />
        </mxCell>
        <mxCell id="4dKTXO5G0q5J4LrQVhPR-44" value="偏移量在临时地图中一部分" style="text;html=1;strokeColor=none;fillColor=none;align=center;verticalAlign=middle;whiteSpace=wrap;rounded=0;glass=0;sketch=1;fontSize=18;" vertex="1" parent="WIyWlLk6GJQsqaUBKTNV-1">
          <mxGeometry x="40" y="850" width="335" height="30" as="geometry" />
        </mxCell>
        <mxCell id="4dKTXO5G0q5J4LrQVhPR-45" value="偏移量在临时地图中一部分" style="text;html=1;strokeColor=none;fillColor=none;align=center;verticalAlign=middle;whiteSpace=wrap;rounded=0;glass=0;sketch=1;fontSize=18;" vertex="1" parent="WIyWlLk6GJQsqaUBKTNV-1">
          <mxGeometry x="437.5" y="850" width="335" height="30" as="geometry" />
        </mxCell>
      </root>
    </mxGraphModel>
  </diagram>
</mxfile>
